<svg width="1285" height="408" viewBox="0 0 1285 408" fill="none" xmlns="http://www.w3.org/2000/svg">
<path d="M1128.33 386.371C1110.07 406.089 1021.52 372.776 909.42 362.81C797.316 352.844 704.103 370 722.369 350.281C740.636 330.563 846.321 322.657 958.425 332.623C1070.53 342.589 1146.6 366.653 1128.33 386.371Z" fill="#EB6818" fill-opacity="0.8"/>
<ellipse cx="35.6289" cy="15.6457" rx="35.6289" ry="15.6457" transform="matrix(0.996072 0.0885497 -0.679581 0.7336 368.888 326.775)" fill="#18EB60" fill-opacity="0.8"/>
<ellipse cx="25.0259" cy="7.55918" rx="25.0259" ry="7.55918" transform="matrix(0.996072 0.0885497 -0.679581 0.7336 638.728 392.193)" fill="#DA18EB" fill-opacity="0.8"/>
<ellipse cx="25.0259" cy="7.55918" rx="25.0259" ry="7.55918" transform="matrix(0.996072 0.0885497 -0.679581 0.7336 445.45 72.8644)" fill="#DA18EB" fill-opacity="0.8"/>
<ellipse cx="25.0259" cy="7.55918" rx="25.0259" ry="7.55918" transform="matrix(0.996072 0.0885497 -0.679581 0.7336 874.956 50.6888)" fill="#DA18EB" fill-opacity="0.8"/>
<ellipse cx="25.0259" cy="7.55918" rx="25.0259" ry="7.55918" transform="matrix(0.996072 0.0885497 -0.679581 0.7336 1161.29 319.013)" fill="#18B8EB" fill-opacity="0.8"/>
<path d="M244.7 71.1415C150.609 86.8819 57.6923 90.0966 37.166 78.3217C16.6397 66.5467 76.2764 44.2411 170.368 28.5006C264.46 12.7602 357.376 9.54548 377.903 21.3204C398.429 33.0954 191.787 55.1239 244.7 71.1415Z" fill="#0085FF" fill-opacity="0.8"/>
<path d="M1197.54 75.0815C1134.91 40.7097 1093.45 80.1663 1072.92 68.3913C1052.4 56.6164 1076.94 31.9883 1125.24 23.9083C1173.54 15.8282 1157.45 53.2918 1247.83 39.1309C1268.36 50.9058 1245.85 67.0015 1197.54 75.0815Z" fill="#F79E1B" fill-opacity="0.8"/>
</svg>
